_________________________  Visit us at _________________________
  
http://p2pdl.com  ____________________________  http://p2pdl.com

Love Is All You Need 2012 BRRip 720p x264 AAC - PRiSTiNE

Genre: Comedy | Romance
Plot: A hairdresser who has lost her hair to cancer finds out her 
husband is having an affair, travels to Italy for her daughter's 
wedding and meets a widower who still blames the world for the loss 
of his wife.
Director: Susanne Bier
Stars: Pierce Brosnan, Trine Dyrholm, Kim Bodnia 
Rated: Rated R for brief sexuality, nudity and some language.

Info: 
http://www.imdb.com/title/tt1854236/

General
Complete name                  : Love Is All You Need 2012 BRRip 720p x264 AAC - PRiSTiNE.mp4
Format                         : MPEG-4
Format profile                 : Base Media
Codec ID                       : isom
File size                      : 625 MiB
Duration                       : 1h 51mn
Overall bit rate mode          : Variable
Overall bit rate               : 786 Kbps

Video
ID                             : 1
Format                         : AVC
Format/Info                    : Advanced Video Codec
Format profile                 : High 10@L4.1
Duration                       : 1h 51mn
Bit rate                       : 699 Kbps
Maximum bit rate               : 7 345 Kbps
Width                          : 1 280 pixels
Height                         : 544 pixels
Display aspect ratio           : 2.35:1
Frame rate mode                : Constant
Frame rate                     : 25.000 fps
Bit depth                      : 10 bits
Stream size                    : 556 MiB (89%)
Writing library                : x264 core 129 r2245 bc13772

Audio
Format                         : AAC
Duration                       : 1h 51mn
Bit rate mode                  : Variable
Bit rate                       : 84.0 Kbps
Channel(s)                     : 2 channels
Channel positions              : Front: L R
Sampling rate                  : 48.0 KHz / 24.0 KHz
Stream size                    : 66.8 MiB (11%)
Language                       : Danish

Subtitle                       : Yes ( English)

Screens: 
http://ultraimg.com/images/D8MkW.jpg 
http://ultraimg.com/images/ZGnR8.jpg 
http://ultraimg.com/images/ytCw8.jpg 
http://ultraimg.com/images/kZCo2.jpg

Thumbs: 
http://ultraimg.com/images/FIfy.jpg
----------------------------------------------------------------------------------------------------
Encoded using revolutionary 10bit encoding, which enables us to provide you more crispier 
and sharper images at small sizes, just make sure you follow our instructions without a fault.
Recommend to you to use latest version of VLC player. Install K-Lite Codec Pack or shark007 codecs
in case of any kind of problem in playback (For non-VLC Media Player users). Alternatively, install
Core AVC codecs, the fastest decoder that there is coupled with Community Center Codec Pack and play
on Windows Media Player Classic. Check sample to be sure.
Enjoy!